<svg width="396" height="221" viewBox="0 0 396 221" fill="none" xmlns="http://www.w3.org/2000/svg">
<path d="M0 219.638L49.3743 219.492L98.7487 219.437L197.497 219.34L296.246 219.437L345.62 219.492L394.995 219.638L345.62 219.79L296.246 219.845L197.497 219.943L98.7487 219.845L49.3743 219.79L0 219.638Z" fill="#263238"/>
<path d="M384.087 206.051H10.908V219.644H384.087V206.051Z" fill="#C7C7C7"/>
<path d="M351.004 0.671921H43.9846V206.05H351.004V0.671921Z" fill="#DBDBDB"/>
<path d="M348.781 3.17538H46.2196V203.541H348.781V3.17538Z" fill="#263238"/>
<path d="M335.376 16.0568H59.6123V190.661H335.376V16.0568Z" fill="white"/>
<path d="M335.376 16.0568H59.6123V22.7744H335.376V16.0568Z" fill="#455A64"/>
<path d="M65.9463 19.4175C65.9463 19.6693 65.8716 19.9154 65.7318 20.1247C65.5919 20.334 65.3931 20.4972 65.1605 20.5935C64.9279 20.6899 64.672 20.7151 64.4251 20.666C64.1782 20.6168 63.9513 20.4956 63.7733 20.3176C63.5953 20.1396 63.4741 19.9128 63.425 19.6659C63.3759 19.4189 63.4011 19.163 63.4974 18.9304C63.5938 18.6978 63.7569 18.499 63.9662 18.3592C64.1755 18.2193 64.4216 18.1447 64.6734 18.1447C65.011 18.1447 65.3347 18.2788 65.5735 18.5175C65.8122 18.7562 65.9463 19.0799 65.9463 19.4175Z" fill="#C7C7C7"/>
<path d="M71.1291 19.4175C71.1291 19.6696 71.0543 19.9159 70.9142 20.1254C70.774 20.3348 70.5749 20.4979 70.342 20.5941C70.109 20.6903 69.8528 20.7151 69.6057 20.6655C69.3586 20.6159 69.1318 20.4941 68.954 20.3154C68.7763 20.1368 68.6555 19.9094 68.6071 19.6621C68.5587 19.4148 68.5847 19.1587 68.682 18.9262C68.7793 18.6937 68.9434 18.4953 69.1535 18.3562C69.3636 18.2171 69.6103 18.1435 69.8623 18.1447C70.0292 18.1447 70.1944 18.1776 70.3485 18.2417C70.5026 18.3057 70.6425 18.3996 70.7603 18.5179C70.878 18.6361 70.9712 18.7765 71.0345 18.9309C71.0978 19.0853 71.1299 19.2507 71.1291 19.4175Z" fill="white"/>
<path d="M76.2998 19.4175C76.2998 19.6693 76.2251 19.9154 76.0853 20.1247C75.9454 20.334 75.7466 20.4972 75.514 20.5935C75.2814 20.6899 75.0255 20.7151 74.7786 20.666C74.5317 20.6168 74.3049 20.4956 74.1268 20.3176C73.9488 20.1396 73.8276 19.9128 73.7785 19.6659C73.7294 19.4189 73.7546 19.163 73.8509 18.9304C73.9473 18.6978 74.1104 18.499 74.3197 18.3592C74.5291 18.2193 74.7752 18.1447 75.0269 18.1447C75.3645 18.1447 75.6883 18.2788 75.927 18.5175C76.1657 18.7562 76.2998 19.0799 76.2998 19.4175Z" fill="#455399"/>
<path d="M224.916 80.4321H170.079V135.269H224.916V80.4321Z" fill="#176FFF"/>
<path d="M218.162 78.7431H220.074V71.8428H218.162V78.7431Z" fill="#C7C7C7"/>
<path d="M212.754 78.7431H214.666V71.8428H212.754V78.7431Z" fill="#C7C7C7"/>
<path d="M207.346 78.7431H209.258V71.8428H207.346V78.7431Z" fill="#C7C7C7"/>
<path d="M201.949 78.7431H203.862V71.8428H201.949V78.7431Z" fill="#C7C7C7"/>
<path d="M196.541 78.7431H198.454V71.8428H196.541V78.7431Z" fill="#C7C7C7"/>
<path d="M191.133 78.7431H193.045V71.8428H191.133V78.7431Z" fill="#C7C7C7"/>
<path d="M185.737 78.7431H187.649V71.8428H185.737V78.7431Z" fill="#C7C7C7"/>
<path d="M180.329 78.7431H182.241V71.8428H180.329V78.7431Z" fill="#C7C7C7"/>
<path d="M174.921 78.7431H176.833V71.8428H174.921V78.7431Z" fill="#C7C7C7"/>
<path d="M174.281 80.4321H177.479V77.8315H174.281V80.4321Z" fill="#176FFF"/>
<path opacity="0.1" d="M174.281 80.4321H177.479V77.8315H174.281V80.4321Z" fill="black"/>
<path d="M179.683 80.4321H182.881V77.8315H179.683V80.4321Z" fill="#176FFF"/>
<path opacity="0.1" d="M179.683 80.4321H182.881V77.8315H179.683V80.4321Z" fill="black"/>
<path d="M185.092 80.4321H188.289V77.8315H185.092V80.4321Z" fill="#176FFF"/>
<path opacity="0.1" d="M185.092 80.4321H188.289V77.8315H185.092V80.4321Z" fill="black"/>
<path d="M190.494 80.4321H193.691V77.8315H190.494V80.4321Z" fill="#176FFF"/>
<path opacity="0.1" d="M190.494 80.4321H193.691V77.8315H190.494V80.4321Z" fill="black"/>
<path d="M195.896 80.4321H199.093V77.8315H195.896V80.4321Z" fill="#176FFF"/>
<path opacity="0.1" d="M195.896 80.4321H199.093V77.8315H195.896V80.4321Z" fill="black"/>
<path d="M201.304 80.4321H204.501V77.8315H201.304V80.4321Z" fill="#176FFF"/>
<path opacity="0.1" d="M201.304 80.4321H204.501V77.8315H201.304V80.4321Z" fill="black"/>
<path d="M206.706 80.4321H209.903V77.8315H206.706V80.4321Z" fill="#176FFF"/>
<path opacity="0.1" d="M206.706 80.4321H209.903V77.8315H206.706V80.4321Z" fill="black"/>
<path d="M212.108 80.4321H215.306V77.8315H212.108V80.4321Z" fill="#176FFF"/>
<path opacity="0.1" d="M212.108 80.4321H215.306V77.8315H212.108V80.4321Z" fill="black"/>
<path d="M217.516 80.4321H220.714V77.8315H217.516V80.4321Z" fill="#176FFF"/>
<path opacity="0.1" d="M217.516 80.4321H220.714V77.8315H217.516V80.4321Z" fill="black"/>
<path d="M226.603 128.508V130.42H233.503V128.508H226.603Z" fill="#C7C7C7"/>
<path d="M226.603 123.107V125.019H233.503V123.107H226.603Z" fill="#C7C7C7"/>
<path d="M226.603 117.704V119.616H233.503V117.704H226.603Z" fill="#C7C7C7"/>
<path d="M226.603 112.295V114.207H233.503V112.295H226.603Z" fill="#C7C7C7"/>
<path d="M226.603 106.894V108.806H233.503V106.894H226.603Z" fill="#C7C7C7"/>
<path d="M226.603 101.485V103.397H233.503V101.485H226.603Z" fill="#C7C7C7"/>
<path d="M226.603 96.0839V97.9962H233.503V96.0839H226.603Z" fill="#C7C7C7"/>
<path d="M226.609 90.6813V92.5937H233.51V90.6813H226.609Z" fill="#C7C7C7"/>
<path d="M226.603 85.2737V87.1861H233.503V85.2737H226.603Z" fill="#C7C7C7"/>
<path d="M224.916 84.6337V87.8311H227.517V84.6337H224.916Z" fill="#176FFF"/>
<path opacity="0.1" d="M224.916 84.6337V87.8311H227.517V84.6337H224.916Z" fill="black"/>
<path d="M224.916 90.0362V93.2337H227.517V90.0362H224.916Z" fill="#176FFF"/>
<path opacity="0.1" d="M224.916 90.0362V93.2337H227.517V90.0362H224.916Z" fill="black"/>
<path d="M224.916 95.4438V98.6412H227.517V95.4438H224.916Z" fill="#176FFF"/>
<path opacity="0.1" d="M224.916 95.4438V98.6412H227.517V95.4438H224.916Z" fill="black"/>
<path d="M224.916 100.846V104.044H227.517V100.846H224.916Z" fill="#176FFF"/>
<path opacity="0.1" d="M224.916 100.846V104.044H227.517V100.846H224.916Z" fill="black"/>
<path d="M224.916 106.254V109.451H227.517V106.254H224.916Z" fill="#176FFF"/>
<path opacity="0.1" d="M224.916 106.254V109.451H227.517V106.254H224.916Z" fill="black"/>
<path d="M224.916 111.656V114.854H227.517V111.656H224.916Z" fill="#176FFF"/>
<path opacity="0.1" d="M224.916 111.656V114.854H227.517V111.656H224.916Z" fill="black"/>
<path d="M224.916 117.057V120.255H227.517V117.057H224.916Z" fill="#176FFF"/>
<path opacity="0.1" d="M224.916 117.057V120.255H227.517V117.057H224.916Z" fill="black"/>
<path d="M224.916 122.467V125.664H227.517V122.467H224.916Z" fill="#176FFF"/>
<path opacity="0.1" d="M224.916 122.467V125.664H227.517V122.467H224.916Z" fill="black"/>
<path d="M224.916 127.867V131.065H227.517V127.867H224.916Z" fill="#176FFF"/>
<path opacity="0.1" d="M224.916 127.867V131.065H227.517V127.867H224.916Z" fill="black"/>
<path d="M176.839 136.955H174.927V143.855H176.839V136.955Z" fill="#C7C7C7"/>
<path d="M182.241 136.955H180.329V143.855H182.241V136.955Z" fill="#C7C7C7"/>
<path d="M187.643 136.955H185.731V143.855H187.643V136.955Z" fill="#C7C7C7"/>
<path d="M193.052 136.955H191.139V143.855H193.052V136.955Z" fill="#C7C7C7"/>
<path d="M198.454 136.955H196.541V143.855H198.454V136.955Z" fill="#C7C7C7"/>
<path d="M203.856 136.955H201.943V143.855H203.856V136.955Z" fill="#C7C7C7"/>
<path d="M209.264 136.955H207.352V143.855H209.264V136.955Z" fill="#C7C7C7"/>
<path d="M214.666 136.955H212.754V143.855H214.666V136.955Z" fill="#C7C7C7"/>
<path d="M220.068 136.955H218.156V143.855H220.068V136.955Z" fill="#C7C7C7"/>
<path d="M220.714 135.269H217.516V137.869H220.714V135.269Z" fill="#176FFF"/>
<path opacity="0.1" d="M220.714 135.269H217.516V137.869H220.714V135.269Z" fill="black"/>
<path d="M215.312 135.269H212.114V137.869H215.312V135.269Z" fill="#176FFF"/>
<path opacity="0.1" d="M215.312 135.269H212.114V137.869H215.312V135.269Z" fill="black"/>
<path d="M209.903 135.269H206.706V137.869H209.903V135.269Z" fill="#176FFF"/>
<path opacity="0.1" d="M209.903 135.269H206.706V137.869H209.903V135.269Z" fill="black"/>
<path d="M204.501 135.269H201.304V137.869H204.501V135.269Z" fill="#176FFF"/>
<path opacity="0.1" d="M204.501 135.269H201.304V137.869H204.501V135.269Z" fill="black"/>
<path d="M199.099 135.269H195.902V137.869H199.099V135.269Z" fill="#176FFF"/>
<path opacity="0.1" d="M199.099 135.269H195.902V137.869H199.099V135.269Z" fill="black"/>
<path d="M193.691 135.269H190.494V137.869H193.691V135.269Z" fill="#176FFF"/>
<path opacity="0.1" d="M193.691 135.269H190.494V137.869H193.691V135.269Z" fill="black"/>
<path d="M188.289 135.269H185.092V137.869H188.289V135.269Z" fill="#176FFF"/>
<path opacity="0.1" d="M188.289 135.269H185.092V137.869H188.289V135.269Z" fill="black"/>
<path d="M182.887 135.269H179.689V137.869H182.887V135.269Z" fill="#176FFF"/>
<path opacity="0.1" d="M182.887 135.269H179.689V137.869H182.887V135.269Z" fill="black"/>
<path d="M177.479 135.269H174.281V137.869H177.479V135.269Z" fill="#176FFF"/>
<path opacity="0.1" d="M177.479 135.269H174.281V137.869H177.479V135.269Z" fill="black"/>
<path d="M168.392 87.1535V85.2412H161.491V87.1535H168.392Z" fill="#C7C7C7"/>
<path d="M168.392 92.5578V90.6454H161.492V92.5578H168.392Z" fill="#C7C7C7"/>
<path d="M168.392 97.9587V96.0463H161.491V97.9587H168.392Z" fill="#C7C7C7"/>
<path d="M168.392 103.368V101.456H161.491V103.368H168.392Z" fill="#C7C7C7"/>
<path d="M168.392 108.769V106.856H161.491V108.769H168.392Z" fill="#C7C7C7"/>
<path d="M168.392 114.171V112.259H161.492V114.171H168.392Z" fill="#C7C7C7"/>
<path d="M168.386 119.579V117.667H161.485V119.579H168.386Z" fill="#C7C7C7"/>
<path d="M168.392 124.981V123.069H161.492V124.981H168.392Z" fill="#C7C7C7"/>
<path d="M168.392 130.384V128.472H161.492V130.384H168.392Z" fill="#C7C7C7"/>
<path d="M170.079 131.029V127.832H167.478V131.029H170.079Z" fill="#176FFF"/>
<path opacity="0.1" d="M170.079 131.029V127.832H167.478V131.029H170.079Z" fill="black"/>
<path d="M170.079 125.627V122.429H167.478V125.627H170.079Z" fill="#176FFF"/>
<path opacity="0.1" d="M170.079 125.627V122.429H167.478V125.627H170.079Z" fill="black"/>
<path d="M170.079 120.219V117.022H167.478V120.219H170.079Z" fill="#176FFF"/>
<path opacity="0.1" d="M170.079 120.219V117.022H167.478V120.219H170.079Z" fill="black"/>
<path d="M170.085 114.823V111.626H167.484V114.823H170.085Z" fill="#176FFF"/>
<path opacity="0.1" d="M170.085 114.823V111.626H167.484V114.823H170.085Z" fill="black"/>
<path d="M170.079 109.416V106.218H167.478V109.416H170.079Z" fill="#176FFF"/>
<path opacity="0.1" d="M170.079 109.416V106.218H167.478V109.416H170.079Z" fill="black"/>
<path d="M170.079 104.006V100.809H167.478V104.006H170.079Z" fill="#176FFF"/>
<path opacity="0.1" d="M170.079 104.006V100.809H167.478V104.006H170.079Z" fill="black"/>
<path d="M170.079 98.6054V95.408H167.478V98.6054H170.079Z" fill="#176FFF"/>
<path opacity="0.1" d="M170.079 98.6054V95.408H167.478V98.6054H170.079Z" fill="black"/>
<path d="M170.079 93.2028V90.0054H167.478V93.2028H170.079Z" fill="#176FFF"/>
<path opacity="0.1" d="M170.079 93.2028V90.0054H167.478V93.2028H170.079Z" fill="black"/>
<path d="M170.079 87.7953V84.5979H167.478V87.7953H170.079Z" fill="#176FFF"/>
<path opacity="0.1" d="M170.079 87.7953V84.5979H167.478V87.7953H170.079Z" fill="black"/>
<path opacity="0.1" d="M175.999 84.9626C175.999 85.3408 175.886 85.7106 175.676 86.025C175.466 86.3395 175.167 86.5847 174.818 86.7294C174.469 86.8741 174.084 86.912 173.713 86.8382C173.342 86.7644 173.001 86.5823 172.734 86.3148C172.466 86.0474 172.284 85.7066 172.211 85.3357C172.137 84.9647 172.175 84.5802 172.319 84.2308C172.464 83.8813 172.709 83.5827 173.024 83.3725C173.338 83.1624 173.708 83.0502 174.086 83.0502C174.593 83.0518 175.078 83.2538 175.437 83.6121C175.795 83.9704 175.997 84.4559 175.999 84.9626Z" fill="black"/>
<path d="M212.273 121.267H182.722V112.168H184.635V119.354H210.36V112.63H212.273V121.267Z" fill="white"/>
<path d="M192.954 106.115H202.035V94.4338H192.954V106.115Z" fill="white"/>
<path d="M206.676 106.115H188.319L197.497 115.604L206.676 106.115Z" fill="white"/>
<path d="M260.532 108.082H233.504V107.625H260.38L285.271 89.3904H307.233V89.8471H285.418L260.532 108.082Z" fill="#DBDBDB"/>
<path d="M308.823 91.467C308.461 91.467 308.108 91.3598 307.808 91.1591C307.507 90.9583 307.273 90.673 307.135 90.3391C306.996 90.0052 306.96 89.6379 307.031 89.2834C307.101 88.929 307.275 88.6035 307.531 88.3479C307.786 88.0924 308.112 87.9184 308.466 87.8479C308.821 87.7774 309.188 87.8136 309.522 87.9519C309.856 88.0902 310.141 88.3244 310.342 88.6248C310.543 88.9253 310.65 89.2785 310.65 89.6399C310.65 90.1245 310.457 90.5892 310.115 90.9319C309.772 91.2745 309.307 91.467 308.823 91.467ZM308.823 88.2209C308.547 88.2209 308.277 88.3026 308.048 88.4559C307.819 88.6091 307.64 88.827 307.534 89.0818C307.429 89.3367 307.401 89.6171 307.455 89.8876C307.509 90.1582 307.641 90.4067 307.837 90.6017C308.032 90.7968 308.28 90.9296 308.551 90.9834C308.821 91.0372 309.102 91.0096 309.356 90.9041C309.611 90.7985 309.829 90.6197 309.982 90.3904C310.136 90.161 310.217 89.8914 310.217 89.6155C310.217 89.2456 310.07 88.8909 309.809 88.6293C309.547 88.3678 309.193 88.2209 308.823 88.2209Z" fill="#DBDBDB"/>
<path d="M257.524 102.752H233.504V102.295H257.372L282.263 84.0609H294.443V84.5177H282.409L257.524 102.752Z" fill="#DBDBDB"/>
<path d="M296.033 86.1376C295.672 86.1376 295.318 86.0304 295.018 85.8297C294.717 85.6289 294.483 85.3435 294.345 85.0097C294.207 84.6758 294.171 84.3085 294.241 83.954C294.312 83.5996 294.486 83.2741 294.741 83.0185C294.997 82.763 295.322 82.589 295.677 82.5185C296.031 82.448 296.398 82.4842 296.732 82.6225C297.066 82.7607 297.351 82.9949 297.552 83.2954C297.753 83.5959 297.86 83.9491 297.86 84.3105C297.86 84.7951 297.668 85.2598 297.325 85.6024C296.982 85.9451 296.518 86.1376 296.033 86.1376ZM296.033 82.8975C295.757 82.8975 295.487 82.9795 295.258 83.133C295.028 83.2865 294.849 83.5047 294.744 83.7599C294.639 84.0151 294.611 84.2958 294.666 84.5665C294.72 84.8373 294.853 85.0857 295.049 85.2806C295.245 85.4754 295.494 85.6077 295.765 85.6608C296.036 85.714 296.316 85.6855 296.571 85.579C296.826 85.4725 297.043 85.2928 297.196 85.0626C297.348 84.8325 297.429 84.5622 297.428 84.2861C297.428 84.1033 297.392 83.9222 297.321 83.7533C297.251 83.5844 297.148 83.4311 297.019 83.3021C296.889 83.173 296.735 83.0709 296.566 83.0015C296.397 82.932 296.216 82.8967 296.033 82.8975Z" fill="#DBDBDB"/>
<path d="M288.256 113.002H233.504V113.459H288.256V113.002Z" fill="#DBDBDB"/>
<path d="M289.876 115.079C289.514 115.079 289.161 114.972 288.861 114.771C288.56 114.57 288.326 114.285 288.188 113.951C288.049 113.617 288.013 113.25 288.084 112.895C288.154 112.541 288.328 112.215 288.584 111.96C288.839 111.704 289.165 111.53 289.519 111.46C289.874 111.389 290.241 111.425 290.575 111.564C290.909 111.702 291.194 111.936 291.395 112.237C291.596 112.537 291.703 112.89 291.703 113.252C291.703 113.736 291.51 114.201 291.168 114.544C290.825 114.886 290.36 115.079 289.876 115.079ZM289.876 111.839C289.6 111.837 289.329 111.918 289.099 112.071C288.869 112.223 288.689 112.441 288.583 112.695C288.476 112.95 288.448 113.231 288.501 113.502C288.554 113.773 288.686 114.022 288.881 114.217C289.076 114.413 289.325 114.546 289.595 114.601C289.866 114.655 290.147 114.628 290.402 114.522C290.657 114.417 290.875 114.238 291.029 114.009C291.182 113.779 291.264 113.509 291.264 113.233C291.263 112.865 291.116 112.512 290.856 112.251C290.596 111.99 290.244 111.842 289.876 111.839Z" fill="#DBDBDB"/>
<path d="M324.195 131.267H276.185L276.136 131.243L252.834 118.891H233.504V118.435H252.95L276.3 130.81H324.195V131.267Z" fill="#DBDBDB"/>
<path d="M325.815 132.892C325.453 132.892 325.1 132.785 324.8 132.584C324.499 132.384 324.265 132.098 324.127 131.764C323.988 131.43 323.952 131.063 324.023 130.709C324.093 130.354 324.267 130.029 324.523 129.773C324.778 129.518 325.104 129.344 325.458 129.273C325.813 129.203 326.18 129.239 326.514 129.377C326.848 129.515 327.133 129.75 327.334 130.05C327.535 130.35 327.642 130.704 327.642 131.065C327.642 131.55 327.449 132.014 327.107 132.357C326.764 132.7 326.299 132.892 325.815 132.892ZM325.815 129.646C325.539 129.646 325.269 129.728 325.04 129.881C324.81 130.034 324.632 130.252 324.526 130.507C324.421 130.762 324.393 131.042 324.447 131.313C324.501 131.583 324.633 131.832 324.828 132.027C325.024 132.222 325.272 132.355 325.543 132.409C325.813 132.462 326.094 132.435 326.348 132.329C326.603 132.224 326.821 132.045 326.974 131.816C327.128 131.586 327.209 131.317 327.209 131.041C327.209 130.858 327.173 130.676 327.103 130.507C327.033 130.338 326.93 130.184 326.801 130.055C326.671 129.925 326.518 129.822 326.348 129.752C326.179 129.682 325.998 129.646 325.815 129.646Z" fill="#DBDBDB"/>
<path d="M303.78 138.886H276.154L276.099 138.856L250.337 124.294H233.504V123.837H250.459L250.508 123.868L276.27 138.43H303.78V138.886Z" fill="#DBDBDB"/>
<path d="M305.4 140.506C305.038 140.506 304.685 140.398 304.385 140.198C304.084 139.997 303.85 139.712 303.712 139.378C303.574 139.044 303.537 138.677 303.608 138.322C303.678 137.968 303.852 137.642 304.108 137.387C304.363 137.131 304.689 136.957 305.043 136.887C305.398 136.816 305.765 136.852 306.099 136.991C306.433 137.129 306.718 137.363 306.919 137.663C307.12 137.964 307.227 138.317 307.227 138.679C307.227 139.163 307.034 139.628 306.692 139.971C306.349 140.313 305.884 140.506 305.4 140.506ZM305.4 137.266C305.124 137.266 304.854 137.347 304.625 137.501C304.396 137.654 304.217 137.872 304.111 138.127C304.006 138.381 303.978 138.662 304.032 138.932C304.086 139.203 304.219 139.451 304.414 139.646C304.609 139.842 304.857 139.974 305.128 140.028C305.398 140.082 305.679 140.054 305.934 139.949C306.188 139.843 306.406 139.664 306.559 139.435C306.713 139.206 306.795 138.936 306.795 138.66C306.795 138.29 306.648 137.936 306.386 137.674C306.124 137.413 305.77 137.266 305.4 137.266Z" fill="#DBDBDB"/>
<path d="M161.492 102.642H128.975L128.914 102.593L104.084 84.4013H82.2745V83.9446H104.236L104.297 83.9933L129.121 102.185H161.492V102.642Z" fill="#DBDBDB"/>
<path d="M80.6789 86.0229C80.3175 86.0229 79.9643 85.9157 79.6638 85.715C79.3634 85.5142 79.1292 85.2288 78.9909 84.895C78.8526 84.5611 78.8164 84.1938 78.8869 83.8393C78.9574 83.4849 79.1314 83.1594 79.3869 82.9038C79.6425 82.6483 79.968 82.4743 80.3225 82.4038C80.6769 82.3333 81.0442 82.3695 81.3781 82.5078C81.712 82.646 81.9973 82.8802 82.1981 83.1807C82.3988 83.4812 82.506 83.8344 82.506 84.1958C82.506 84.6804 82.3135 85.1451 81.9709 85.4877C81.6282 85.8304 81.1635 86.0229 80.6789 86.0229ZM80.6789 82.7828C80.4031 82.7828 80.1334 82.8646 79.9041 83.0179C79.6747 83.1711 79.4959 83.3889 79.3904 83.6438C79.2848 83.8986 79.2572 84.1791 79.311 84.4496C79.3648 84.7201 79.4977 84.9686 79.6927 85.1637C79.8878 85.3587 80.1363 85.4916 80.4068 85.5454C80.6774 85.5992 80.9578 85.5716 81.2126 85.466C81.4675 85.3605 81.6853 85.1817 81.8385 84.9524C81.9918 84.723 82.0736 84.4533 82.0736 84.1775C82.0736 83.8076 81.9267 83.4529 81.6651 83.1913C81.4035 82.9298 81.0488 82.7828 80.6789 82.7828Z" fill="#DBDBDB"/>
<path d="M161.491 97.2332H131.984L131.923 97.1906L107.093 78.9988H95.0642V78.542H107.245L107.306 78.5846L132.13 96.7765H161.491V97.2332Z" fill="#DBDBDB"/>
<path d="M93.4685 80.6186C93.1071 80.6186 92.7538 80.5115 92.4534 80.3107C92.1529 80.11 91.9187 79.8246 91.7804 79.4908C91.6421 79.1569 91.606 78.7895 91.6765 78.4351C91.747 78.0807 91.921 77.7551 92.1765 77.4996C92.432 77.2441 92.7576 77.0701 93.112 76.9996C93.4664 76.9291 93.8338 76.9652 94.1677 77.1035C94.5015 77.2418 94.7869 77.476 94.9876 77.7765C95.1884 78.0769 95.2956 78.4302 95.2956 78.7915C95.2956 79.2761 95.1031 79.7409 94.7604 80.0835C94.4178 80.4261 93.953 80.6186 93.4685 80.6186ZM93.4685 77.3786C93.1924 77.3786 92.9225 77.4606 92.693 77.6141C92.4635 77.7676 92.2847 77.9858 92.1794 78.241C92.074 78.4962 92.0467 78.7769 92.101 79.0476C92.1553 79.3183 92.2888 79.5668 92.4844 79.7616C92.6801 79.9564 92.9292 80.0888 93.2001 80.1419C93.4711 80.195 93.7517 80.1665 94.0064 80.06C94.2612 79.9536 94.4785 79.7738 94.6311 79.5437C94.7836 79.3135 94.8643 79.0433 94.8631 78.7672C94.8648 78.5833 94.8298 78.4009 94.7604 78.2306C94.6909 78.0604 94.5884 77.9056 94.4586 77.7753C94.3289 77.6449 94.1745 77.5417 94.0045 77.4715C93.8346 77.4013 93.6524 77.3656 93.4685 77.3664V77.3786Z" fill="#DBDBDB"/>
<path d="M161.491 107.624H70.8003V108.081H161.491V107.624Z" fill="#DBDBDB"/>
<path d="M69.1804 109.701C68.819 109.701 68.4658 109.594 68.1653 109.393C67.8648 109.192 67.6306 108.907 67.4924 108.573C67.3541 108.239 67.3179 107.872 67.3884 107.518C67.4589 107.163 67.6329 106.838 67.8884 106.582C68.1439 106.326 68.4695 106.152 68.8239 106.082C69.1783 106.011 69.5457 106.048 69.8796 106.186C70.2134 106.324 70.4988 106.558 70.6996 106.859C70.9003 107.159 71.0075 107.513 71.0075 107.874C71.0075 108.359 70.815 108.823 70.4723 109.166C70.1297 109.509 69.6649 109.701 69.1804 109.701ZM69.1804 106.461C68.904 106.46 68.6335 106.541 68.4032 106.694C68.173 106.846 67.9933 107.064 67.8869 107.319C67.7806 107.574 67.7525 107.855 67.8061 108.126C67.8597 108.397 67.9927 108.646 68.1881 108.842C68.3835 109.037 68.6326 109.17 68.9037 109.224C69.1748 109.277 69.4557 109.249 69.7108 109.143C69.9659 109.037 70.1837 108.857 70.3365 108.627C70.4892 108.396 70.5702 108.126 70.569 107.85C70.5674 107.482 70.4206 107.13 70.1605 106.87C69.9004 106.609 69.5482 106.463 69.1804 106.461Z" fill="#DBDBDB"/>
<path d="M113.317 125.829H101.855V125.372H113.207L136.558 112.99H161.491V113.447H136.667L113.317 125.829Z" fill="#DBDBDB"/>
<path d="M100.229 127.448C99.8673 127.448 99.5141 127.341 99.2136 127.14C98.9132 126.939 98.679 126.654 98.5407 126.32C98.4024 125.986 98.3662 125.619 98.4367 125.265C98.5072 124.91 98.6812 124.585 98.9368 124.329C99.1923 124.073 99.5178 123.899 99.8723 123.829C100.227 123.758 100.594 123.795 100.928 123.933C101.262 124.071 101.547 124.305 101.748 124.606C101.949 124.906 102.056 125.26 102.056 125.621C102.056 126.106 101.863 126.57 101.521 126.913C101.178 127.256 100.713 127.448 100.229 127.448ZM100.229 124.208C99.9529 124.208 99.6832 124.29 99.4539 124.443C99.2245 124.596 99.0458 124.814 98.9402 125.069C98.8346 125.324 98.807 125.604 98.8608 125.875C98.9146 126.145 99.0475 126.394 99.2425 126.589C99.4376 126.784 99.6861 126.917 99.9566 126.971C100.227 127.024 100.508 126.997 100.762 126.891C101.017 126.786 101.235 126.607 101.388 126.378C101.542 126.148 101.623 125.879 101.623 125.603C101.623 125.233 101.476 124.878 101.215 124.617C100.953 124.355 100.599 124.208 100.229 124.208Z" fill="#DBDBDB"/>
<path d="M113.353 133.447H85.7216V132.99H113.232L139.049 118.398H161.491V118.855H139.17L113.353 133.447Z" fill="#DBDBDB"/>
<path d="M84.1016 135.067C83.7403 135.067 83.387 134.959 83.0866 134.759C82.7861 134.558 82.5519 134.272 82.4136 133.939C82.2753 133.605 82.2391 133.237 82.3096 132.883C82.3801 132.529 82.5542 132.203 82.8097 131.947C83.0652 131.692 83.3908 131.518 83.7452 131.447C84.0996 131.377 84.467 131.413 84.8008 131.551C85.1347 131.69 85.4201 131.924 85.6208 132.224C85.8216 132.525 85.9287 132.878 85.9287 133.239C85.9287 133.724 85.7362 134.189 85.3936 134.531C85.0509 134.874 84.5862 135.067 84.1016 135.067ZM84.1016 131.826C83.8258 131.826 83.5561 131.908 83.3268 132.062C83.0974 132.215 82.9187 132.433 82.8131 132.687C82.7076 132.942 82.6799 133.223 82.7337 133.493C82.7876 133.764 82.9204 134.012 83.1154 134.207C83.3105 134.402 83.559 134.535 83.8296 134.589C84.1001 134.643 84.3805 134.615 84.6354 134.51C84.8902 134.404 85.108 134.225 85.2613 133.996C85.4145 133.767 85.4963 133.497 85.4963 133.221C85.4963 132.851 85.3494 132.497 85.0878 132.235C84.8263 131.973 84.4715 131.826 84.1016 131.826Z" fill="#DBDBDB"/>
<path d="M203.149 71.8439H202.693V59.4257L202.741 59.3648L213.448 44.7541V40.5944H213.905V44.9002L213.856 44.9611L203.149 59.5719V71.8439Z" fill="#DBDBDB"/>
<path d="M213.673 40.7593C213.312 40.7593 212.959 40.6522 212.658 40.4514C212.358 40.2507 212.124 39.9653 211.985 39.6315C211.847 39.2976 211.811 38.9302 211.881 38.5758C211.952 38.2214 212.126 37.8958 212.381 37.6403C212.637 37.3848 212.963 37.2108 213.317 37.1403C213.671 37.0698 214.039 37.1059 214.373 37.2442C214.706 37.3825 214.992 37.6167 215.193 37.9172C215.393 38.2176 215.501 38.5709 215.501 38.9322C215.501 39.4168 215.308 39.8816 214.965 40.2242C214.623 40.5669 214.158 40.7593 213.673 40.7593ZM213.673 37.5193C213.397 37.5193 213.127 37.6012 212.898 37.7548C212.668 37.9083 212.49 38.1265 212.384 38.3817C212.279 38.6369 212.252 38.9176 212.306 39.1883C212.36 39.459 212.494 39.7075 212.689 39.9023C212.885 40.0971 213.134 40.2295 213.405 40.2826C213.676 40.3357 213.957 40.3072 214.211 40.2007C214.466 40.0942 214.684 39.9145 214.836 39.6844C214.989 39.4542 215.069 39.184 215.068 38.9079C215.068 38.725 215.032 38.5439 214.962 38.3751C214.892 38.2062 214.789 38.0529 214.659 37.9238C214.53 37.7948 214.376 37.6927 214.207 37.6232C214.037 37.5538 213.856 37.5185 213.673 37.5193Z" fill="#DBDBDB"/>
<path d="M208.557 71.8433H208.101V62.4337L208.143 62.3728L221.079 44.717V36.4037H221.536V44.8692L221.493 44.9301L208.557 62.5799V71.8433Z" fill="#DBDBDB"/>
<path d="M221.305 36.6285C220.943 36.6285 220.59 36.5213 220.29 36.3206C219.989 36.1198 219.755 35.8344 219.617 35.5006C219.478 35.1667 219.442 34.7993 219.513 34.4449C219.583 34.0905 219.757 33.7649 220.013 33.5094C220.268 33.2539 220.594 33.0799 220.948 33.0094C221.303 32.9389 221.67 32.9751 222.004 33.1134C222.338 33.2516 222.623 33.4858 222.824 33.7863C223.025 34.0868 223.132 34.44 223.132 34.8014C223.132 35.2859 222.939 35.7507 222.597 36.0933C222.254 36.436 221.789 36.6285 221.305 36.6285ZM221.305 33.3884C221.029 33.3884 220.759 33.4702 220.53 33.6235C220.3 33.7767 220.122 33.9945 220.016 34.2494C219.911 34.5042 219.883 34.7847 219.937 35.0552C219.991 35.3257 220.123 35.5742 220.318 35.7693C220.514 35.9643 220.762 36.0972 221.033 36.151C221.303 36.2048 221.584 36.1772 221.838 36.0716C222.093 35.9661 222.311 35.7873 222.464 35.5579C222.618 35.3286 222.699 35.0589 222.699 34.7831C222.699 34.5999 222.663 34.4186 222.593 34.2494C222.523 34.0802 222.42 33.9264 222.291 33.7969C222.161 33.6674 222.008 33.5647 221.838 33.4946C221.669 33.4245 221.488 33.3884 221.305 33.3884Z" fill="#DBDBDB"/>
<path d="M197.747 47.0076H197.29V71.844H197.747V47.0076Z" fill="#DBDBDB"/>
<path d="M197.498 47.2391C197.136 47.2391 196.783 47.1319 196.482 46.9312C196.182 46.7304 195.948 46.4451 195.809 46.1112C195.671 45.7773 195.635 45.41 195.706 45.0556C195.776 44.7011 195.95 44.3756 196.206 44.12C196.461 43.8645 196.787 43.6905 197.141 43.62C197.495 43.5495 197.863 43.5857 198.197 43.724C198.531 43.8623 198.816 44.0965 199.017 44.3969C199.217 44.6974 199.325 45.0506 199.325 45.412C199.325 45.8966 199.132 46.3613 198.789 46.704C198.447 47.0466 197.982 47.2391 197.498 47.2391ZM197.498 43.999C197.221 43.9978 196.951 44.0788 196.72 44.2316C196.49 44.3843 196.31 44.6021 196.204 44.8572C196.098 45.1123 196.07 45.3932 196.123 45.6643C196.177 45.9354 196.31 46.1845 196.505 46.3799C196.701 46.5753 196.95 46.7083 197.221 46.7619C197.492 46.8155 197.773 46.7874 198.028 46.6811C198.283 46.5748 198.501 46.3951 198.654 46.1648C198.806 45.9345 198.887 45.664 198.886 45.3876C198.885 45.0199 198.738 44.6676 198.478 44.4075C198.218 44.1475 197.865 44.0006 197.498 43.999Z" fill="#DBDBDB"/>
<path d="M192.345 71.843H191.888V67.123L183.599 51.4952V36.7444H184.056V51.3795L192.345 67.0073V71.843Z" fill="#DBDBDB"/>
<path d="M183.831 36.8113C183.47 36.8113 183.116 36.7042 182.816 36.5034C182.515 36.3026 182.281 36.0173 182.143 35.6834C182.005 35.3496 181.968 34.9822 182.039 34.6278C182.109 34.2734 182.283 33.9478 182.539 33.6923C182.794 33.4368 183.12 33.2627 183.474 33.1922C183.829 33.1217 184.196 33.1579 184.53 33.2962C184.864 33.4345 185.149 33.6687 185.35 33.9691C185.551 34.2696 185.658 34.6229 185.658 34.9842C185.658 35.4688 185.465 35.9335 185.123 36.2762C184.78 36.6188 184.315 36.8113 183.831 36.8113ZM183.831 33.5713C183.555 33.5701 183.285 33.6508 183.054 33.8034C182.824 33.9559 182.645 34.1733 182.538 34.428C182.432 34.6827 182.403 34.9634 182.456 35.2343C182.509 35.5052 182.642 35.7543 182.836 35.95C183.031 36.1456 183.28 36.2791 183.55 36.3334C183.821 36.3877 184.102 36.3604 184.357 36.2551C184.612 36.1497 184.83 35.9709 184.984 35.7414C185.138 35.512 185.219 35.2421 185.219 34.966C185.218 34.5976 185.071 34.2447 184.811 33.9837C184.551 33.7226 184.199 33.5745 183.831 33.5713Z" fill="#DBDBDB"/>
<path d="M186.937 71.8436H186.48V69.6206L174.58 48.5663V44.3945H175.036V48.4506L186.937 69.4988V71.8436Z" fill="#DBDBDB"/>
<path d="M174.811 44.5162C174.45 44.5162 174.096 44.4091 173.796 44.2083C173.495 44.0075 173.261 43.7222 173.123 43.3883C172.985 43.0545 172.948 42.6871 173.019 42.3327C173.089 41.9782 173.264 41.6527 173.519 41.3972C173.775 41.1416 174.1 40.9676 174.455 40.8971C174.809 40.8266 175.176 40.8628 175.51 41.0011C175.844 41.1394 176.129 41.3736 176.33 41.674C176.531 41.9745 176.638 42.3277 176.638 42.6891C176.638 43.1737 176.446 43.6384 176.103 43.9811C175.76 44.3237 175.296 44.5162 174.811 44.5162ZM174.811 41.2762C174.533 41.2713 174.261 41.3495 174.028 41.5006C173.795 41.6517 173.612 41.8688 173.504 42.1243C173.395 42.3798 173.365 42.6619 173.417 42.9345C173.47 43.2071 173.602 43.4579 173.798 43.6546C173.994 43.8514 174.244 43.9852 174.517 44.0389C174.789 44.0927 175.071 44.0639 175.327 43.9563C175.583 43.8487 175.801 43.6671 175.953 43.4348C176.106 43.2026 176.185 42.9302 176.181 42.6526C176.175 42.2905 176.029 41.9449 175.773 41.6883C175.518 41.4317 175.173 41.284 174.811 41.2762Z" fill="#DBDBDB"/>
<path d="M253.979 169.039H141.016V159.295H253.979V169.039ZM141.625 168.43H253.37V159.904H141.625V168.43Z" fill="#DBDBDB"/>
<path d="M209.331 161.713H143.964V166.616H209.331V161.713Z" fill="#176FFF"/>
<path opacity="0.2" d="M151.022 166.622H147.679L143.964 161.713H147.313L151.022 166.622Z" fill="white"/>
<path opacity="0.2" d="M158.081 166.622H154.737L151.022 161.713H154.372L158.081 166.622Z" fill="white"/>
<path opacity="0.2" d="M165.14 166.622H161.796L158.081 161.713H161.431L165.14 166.622Z" fill="white"/>
<path opacity="0.2" d="M172.198 166.622H168.855L165.14 161.713H168.489L172.198 166.622Z" fill="white"/>
<path opacity="0.2" d="M179.257 166.622H175.913L172.198 161.713H175.548L179.257 166.622Z" fill="white"/>
<path opacity="0.2" d="M186.316 166.622H182.972L179.257 161.713H182.607L186.316 166.622Z" fill="white"/>
<path opacity="0.2" d="M193.374 166.622H190.031L186.316 161.713H189.665L193.374 166.622Z" fill="white"/>
<path opacity="0.2" d="M200.433 166.622H197.089L193.374 161.713H196.724L200.433 166.622Z" fill="white"/>
<path opacity="0.2" d="M207.492 166.622H204.148L200.433 161.713H203.783L207.492 166.622Z" fill="white"/>
<path opacity="0.2" d="M209.337 161.713V164.149L207.492 161.713H209.337Z" fill="white"/>
<path d="M187.241 155.934C186.821 155.934 186.419 155.767 186.122 155.47C185.825 155.173 185.658 154.77 185.658 154.35V152.401C185.658 152.361 185.666 152.322 185.681 152.286C185.697 152.249 185.719 152.216 185.747 152.188C185.776 152.16 185.809 152.138 185.846 152.124C185.883 152.109 185.923 152.102 185.962 152.103C186.002 152.102 186.042 152.109 186.078 152.124C186.115 152.138 186.149 152.16 186.177 152.188C186.206 152.216 186.228 152.249 186.244 152.286C186.259 152.322 186.267 152.361 186.267 152.401V154.356C186.286 154.602 186.398 154.832 186.579 154.999C186.76 155.167 186.998 155.26 187.244 155.26C187.491 155.26 187.729 155.167 187.91 154.999C188.091 154.832 188.202 154.602 188.222 154.356V152.401C188.222 152.32 188.254 152.243 188.311 152.186C188.368 152.129 188.446 152.097 188.526 152.097C188.607 152.097 188.685 152.129 188.742 152.186C188.799 152.243 188.831 152.32 188.831 152.401V154.356C188.83 154.564 188.788 154.77 188.708 154.962C188.628 155.153 188.51 155.328 188.363 155.474C188.215 155.621 188.04 155.737 187.848 155.815C187.655 155.894 187.449 155.934 187.241 155.934Z" fill="#C7C7C7"/>
<path d="M191.407 154.446H190.731V155.634C190.731 155.715 190.699 155.792 190.642 155.849C190.585 155.906 190.507 155.938 190.427 155.938C190.346 155.938 190.268 155.906 190.211 155.849C190.154 155.792 190.122 155.715 190.122 155.634V152.4C190.122 152.36 190.13 152.321 190.145 152.284C190.161 152.248 190.183 152.214 190.212 152.187C190.24 152.159 190.274 152.137 190.311 152.122C190.348 152.108 190.387 152.101 190.427 152.101H191.407C191.568 152.09 191.73 152.111 191.882 152.165C192.035 152.219 192.174 152.303 192.293 152.413C192.411 152.523 192.505 152.656 192.569 152.804C192.634 152.953 192.667 153.112 192.667 153.274C192.667 153.435 192.634 153.595 192.569 153.743C192.505 153.891 192.411 154.024 192.293 154.134C192.174 154.244 192.035 154.329 191.882 154.382C191.73 154.436 191.568 154.458 191.407 154.446ZM190.731 153.837H191.407C191.557 153.837 191.702 153.777 191.808 153.671C191.914 153.565 191.974 153.421 191.974 153.271C191.974 153.121 191.914 152.976 191.808 152.87C191.702 152.764 191.557 152.704 191.407 152.704H190.731V153.837Z" fill="#C7C7C7"/>
<path d="M193.313 155.634V152.4C193.313 152.361 193.32 152.322 193.334 152.285C193.349 152.248 193.371 152.215 193.399 152.187C193.427 152.159 193.46 152.137 193.497 152.123C193.533 152.108 193.572 152.101 193.612 152.102H194.257C194.766 152.102 195.254 152.304 195.614 152.664C195.974 153.023 196.176 153.511 196.176 154.02C196.176 154.529 195.974 155.017 195.614 155.377C195.254 155.737 194.766 155.939 194.257 155.939H193.612C193.572 155.939 193.533 155.931 193.496 155.915C193.46 155.9 193.426 155.877 193.399 155.849C193.371 155.821 193.349 155.787 193.334 155.75C193.32 155.713 193.313 155.674 193.313 155.634ZM193.922 155.33H194.257C194.59 155.307 194.902 155.159 195.129 154.915C195.357 154.672 195.483 154.351 195.483 154.017C195.483 153.684 195.357 153.363 195.129 153.119C194.902 152.875 194.59 152.727 194.257 152.705H193.922V155.33Z" fill="#C7C7C7"/>
<path d="M198.856 155.031H197.497L197.23 155.744C197.207 155.801 197.167 155.85 197.116 155.885C197.065 155.919 197.005 155.938 196.943 155.939C196.909 155.945 196.874 155.945 196.84 155.939C196.764 155.909 196.703 155.851 196.669 155.777C196.635 155.703 196.631 155.62 196.657 155.543L197.875 152.315C197.899 152.257 197.94 152.208 197.992 152.173C198.044 152.138 198.105 152.12 198.167 152.12C198.23 152.119 198.292 152.137 198.344 152.172C198.396 152.207 198.436 152.257 198.46 152.315L199.678 155.543C199.704 155.62 199.699 155.703 199.665 155.777C199.631 155.851 199.57 155.909 199.495 155.939C199.461 155.945 199.426 155.945 199.392 155.939C199.33 155.94 199.27 155.921 199.22 155.886C199.17 155.851 199.132 155.801 199.111 155.744L198.856 155.031ZM198.63 154.422L198.186 153.247L197.741 154.422H198.63Z" fill="#C7C7C7"/>
<path d="M202.236 152.705H201.365V155.634C201.365 155.715 201.333 155.792 201.276 155.849C201.219 155.907 201.141 155.939 201.06 155.939C200.98 155.939 200.902 155.907 200.845 155.849C200.788 155.792 200.756 155.715 200.756 155.634V152.705H199.891C199.81 152.705 199.733 152.673 199.676 152.615C199.619 152.558 199.586 152.481 199.586 152.4C199.586 152.36 199.594 152.321 199.61 152.285C199.625 152.248 199.648 152.215 199.676 152.187C199.704 152.159 199.738 152.137 199.775 152.123C199.812 152.108 199.851 152.101 199.891 152.102H202.23C202.269 152.101 202.309 152.108 202.346 152.123C202.383 152.137 202.416 152.159 202.445 152.187C202.473 152.215 202.495 152.248 202.511 152.285C202.526 152.321 202.534 152.36 202.534 152.4C202.533 152.479 202.501 152.555 202.445 152.612C202.39 152.668 202.315 152.702 202.236 152.705Z" fill="#C7C7C7"/>
<path d="M203.442 155.634V152.4C203.441 152.361 203.448 152.322 203.463 152.285C203.477 152.248 203.499 152.215 203.527 152.187C203.555 152.159 203.588 152.137 203.625 152.123C203.661 152.108 203.701 152.101 203.74 152.102H205.537C205.616 152.102 205.692 152.133 205.748 152.189C205.804 152.245 205.835 152.321 205.835 152.4C205.835 152.48 205.804 152.556 205.748 152.613C205.692 152.67 205.616 152.703 205.537 152.705H204.051V153.71H205.33C205.409 153.713 205.484 153.746 205.539 153.803C205.595 153.859 205.627 153.935 205.628 154.014C205.629 154.054 205.622 154.093 205.607 154.13C205.592 154.167 205.571 154.201 205.543 154.229C205.515 154.257 205.482 154.28 205.445 154.295C205.409 154.311 205.369 154.319 205.33 154.319H204.051V155.324H205.537C205.616 155.325 205.692 155.358 205.748 155.415C205.804 155.472 205.835 155.548 205.835 155.628C205.834 155.707 205.802 155.783 205.746 155.84C205.691 155.896 205.616 155.929 205.537 155.933H203.74C203.661 155.931 203.586 155.899 203.531 155.843C203.475 155.788 203.443 155.713 203.442 155.634Z" fill="#C7C7C7"/>
<path d="M206.974 155.159C207.082 155.159 207.186 155.202 207.263 155.278C207.339 155.355 207.382 155.458 207.382 155.567C207.382 155.675 207.339 155.779 207.263 155.855C207.186 155.932 207.082 155.975 206.974 155.975C206.866 155.975 206.762 155.932 206.686 155.855C206.609 155.779 206.566 155.675 206.566 155.567C206.566 155.458 206.609 155.355 206.686 155.278C206.762 155.202 206.866 155.159 206.974 155.159Z" fill="#C7C7C7"/>
<path d="M208.235 155.159C208.343 155.159 208.447 155.202 208.523 155.278C208.6 155.355 208.643 155.458 208.643 155.567C208.643 155.675 208.6 155.779 208.523 155.855C208.447 155.932 208.343 155.975 208.235 155.975C208.126 155.975 208.023 155.932 207.946 155.855C207.87 155.779 207.827 155.675 207.827 155.567C207.827 155.458 207.87 155.355 207.946 155.278C208.023 155.202 208.126 155.159 208.235 155.159Z" fill="#C7C7C7"/>
<path d="M209.495 155.159C209.604 155.159 209.707 155.202 209.784 155.278C209.861 155.355 209.904 155.458 209.904 155.567C209.904 155.675 209.861 155.779 209.784 155.855C209.707 155.932 209.604 155.975 209.495 155.975C209.387 155.975 209.283 155.932 209.207 155.855C209.13 155.779 209.087 155.675 209.087 155.567C209.087 155.458 209.13 155.355 209.207 155.278C209.283 155.202 209.387 155.159 209.495 155.159Z" fill="#C7C7C7"/>
<path d="M380.384 216.561C379.946 214.941 353.769 176.323 351.887 175.507C351.674 175.403 338.641 183.692 338.641 183.692C338.087 184.356 314.462 178.058 314.462 178.058L312.714 206.866L356.279 208.212C356.279 208.212 361.979 211.975 367.205 215.075C370.42 216.994 373.295 218.614 374.099 218.876C376.267 219.552 380.816 218.163 380.384 216.561Z" fill="#AD6359"/>
<path d="M374.117 218.877C373.289 218.621 370.463 216.995 367.223 215.076C361.997 211.982 356.297 208.212 356.297 208.212L346.601 207.914L332.703 182.657C335.998 183.419 338.464 183.875 338.641 183.687C338.641 183.687 351.674 175.404 351.887 175.513C353.769 176.323 379.939 214.942 380.384 216.556C380.828 218.17 376.267 219.553 374.117 218.877Z" fill="white"/>
<path d="M380.64 216.622C380.171 214.966 353.842 176.359 351.936 175.525C351.205 175.202 344.859 178.679 338.641 183.692L355.627 208.559C355.627 208.559 371.985 218.352 374.202 219.04C376.419 219.728 381.109 218.279 380.64 216.622Z" fill="#176FFF"/>
<path d="M378.715 217.122C374.148 210.758 356.327 184.661 352.295 178.028C352.295 177.973 352.295 177.949 352.338 178.028C357.003 184.234 374.61 210.477 378.825 217.079C378.91 217.189 378.813 217.256 378.715 217.122Z" fill="#263238"/>
<path d="M371.121 217.506C370.611 216.8 370.254 215.996 370.073 215.145C369.891 214.293 369.889 213.413 370.067 212.561C370.362 211.029 371.234 209.668 372.503 208.76C372.546 208.76 372.594 208.803 372.558 208.84C371.432 209.935 370.691 211.365 370.446 212.916C370.201 214.468 370.466 216.057 371.2 217.445C371.208 217.456 371.211 217.469 371.21 217.482C371.208 217.495 371.201 217.507 371.191 217.515C371.18 217.523 371.167 217.527 371.154 217.525C371.141 217.524 371.129 217.517 371.121 217.506Z" fill="#263238"/>
<path d="M357.673 210.137C355.846 207.567 354.744 203.943 355.767 200.892C355.803 200.77 355.974 200.831 355.986 200.935C356.34 204.008 357.024 207.034 358.026 209.96C358.039 210.005 358.036 210.054 358.017 210.096C357.998 210.139 357.965 210.174 357.923 210.195C357.881 210.216 357.833 210.222 357.787 210.211C357.742 210.2 357.701 210.174 357.673 210.137Z" fill="#263238"/>
<path d="M359.799 211.617C357.972 209.046 356.863 205.423 357.886 202.371C357.929 202.25 358.093 202.311 358.106 202.414C358.462 205.487 359.145 208.513 360.146 211.44C360.167 211.486 360.169 211.538 360.153 211.585C360.136 211.633 360.102 211.672 360.057 211.695C360.012 211.718 359.96 211.723 359.912 211.708C359.864 211.693 359.823 211.661 359.799 211.617Z" fill="#263238"/>
<path d="M361.936 213.085C360.109 210.521 359.001 206.891 360.024 203.84C360.061 203.724 360.231 203.779 360.243 203.883C360.598 206.956 361.283 209.981 362.283 212.908C362.305 212.954 362.307 213.006 362.291 213.054C362.274 213.102 362.24 213.141 362.195 213.164C362.15 213.187 362.098 213.191 362.05 213.177C362.002 213.162 361.961 213.129 361.936 213.085Z" fill="#263238"/>
<path d="M364.08 214.553C362.283 211.989 361.151 208.359 362.174 205.308C362.21 205.192 362.375 205.247 362.393 205.35C362.746 208.431 363.428 211.465 364.427 214.401C364.435 214.444 364.428 214.488 364.407 214.527C364.387 214.566 364.354 214.596 364.314 214.614C364.274 214.631 364.229 214.635 364.186 214.624C364.144 214.613 364.107 214.588 364.08 214.553Z" fill="#263238"/>
<path d="M347.271 183.863C345.304 180.951 349.823 177.882 351.796 180.817C353.769 183.753 349.25 186.78 347.271 183.863Z" fill="#263238"/>
<path d="M356.309 214.864C357.162 212.233 356.845 209.334 356.863 206.617C356.857 206.558 356.837 206.5 356.805 206.449C356.773 206.399 356.729 206.356 356.678 206.325C356.627 206.294 356.569 206.275 356.509 206.269C356.449 206.264 356.389 206.273 356.333 206.295C356.328 206.283 356.32 206.274 356.31 206.266C356.3 206.258 356.289 206.252 356.276 206.249C356.264 206.246 356.251 206.246 356.239 206.249C356.227 206.251 356.215 206.257 356.205 206.264C353.96 208.076 352.23 210.445 351.187 213.134C350.578 214.712 350.669 217.087 352.649 217.653C354.524 218.195 355.809 216.392 356.309 214.864ZM354.244 216.441C351.248 218.104 351.68 214.09 352.155 212.945C352.474 212.209 352.842 211.494 353.258 210.808C354.098 209.37 355.127 208.073 356.102 206.733C356.01 208.067 356.035 209.395 355.992 210.728C355.943 212.318 355.895 215.528 354.244 216.441Z" fill="#263238"/>
<path d="M348.288 198.194C346.735 199.546 347.679 201.726 348.897 202.914C350.98 204.908 353.551 206.319 356.351 207.006C356.364 207.01 356.377 207.011 356.39 207.009C356.403 207.006 356.415 207.001 356.426 206.994C356.436 206.986 356.445 206.976 356.451 206.965C356.457 206.953 356.461 206.94 356.461 206.927C356.521 206.923 356.579 206.906 356.631 206.875C356.683 206.845 356.726 206.803 356.759 206.753C356.792 206.702 356.812 206.645 356.818 206.585C356.825 206.526 356.817 206.466 356.796 206.409C355.633 203.973 354.689 201.196 352.807 199.174C351.686 197.999 349.756 196.909 348.288 198.194ZM354.244 203.066C354.853 204.284 355.389 205.472 356.035 206.641C354.561 205.883 353.126 205.052 351.735 204.15C351.068 203.706 350.433 203.216 349.835 202.682C348.921 201.848 346.826 198.388 350.243 198.626C352.125 198.748 353.526 201.61 354.244 203.054V203.066Z" fill="#263238"/>
<path d="M321.643 171.848C321.643 171.848 284.827 155.544 268.505 155.934C249.076 156.409 234.271 179.686 258.297 195.99C279.54 210.418 345.894 208.505 345.894 208.505L330.06 180.849C330.06 180.849 311.642 173.973 287.622 173.541L321.21 179.923L321.643 171.848Z" fill="#37474F"/>
<path d="M321.04 177.406C318.159 176.712 315.23 176.261 312.312 175.774C309.395 175.287 306.411 174.849 303.451 174.44C297.549 173.618 291.61 173.094 285.655 172.869C285.101 172.869 284.54 172.869 283.98 172.833C283.862 172.79 283.742 172.753 283.621 172.723C283.341 172.638 283.06 172.552 282.774 172.485C282.244 172.351 281.708 172.248 281.172 172.132C280.052 171.907 278.931 171.724 277.823 171.456C277.756 171.456 277.725 171.541 277.792 171.56C278.907 171.87 279.991 172.254 281.105 172.559L282.074 172.814C279.887 172.814 277.701 172.869 275.515 172.954C275.441 172.954 275.435 173.064 275.515 173.064C278.481 173.064 281.465 173.18 284.431 173.381C287.397 173.582 290.314 173.807 293.243 174.13C299.175 174.782 305.095 175.622 310.985 176.566C314.292 177.09 317.605 177.674 320.936 177.991C321.253 178.009 321.363 177.486 321.04 177.406Z" fill="#263238"/>
<path d="M339.128 207.341C338.154 205.581 337.344 203.687 336.46 201.908L333.805 196.476C332.033 192.864 325.626 180.696 324.98 179.837C324.938 179.782 324.846 179.837 324.864 179.898C325.145 180.83 329.128 188.869 330.035 190.666C331.862 194.253 333.811 197.785 335.717 201.33C336.266 202.347 336.832 203.346 337.386 204.375C337.94 205.404 338.531 206.379 339.037 207.42C339.067 207.45 339.165 207.402 339.128 207.341Z" fill="#263238"/>
<path d="M252.822 218.09C253.279 216.476 279.814 178.113 281.708 177.315C281.921 177.212 294.876 185.622 294.876 185.622C295.424 186.292 319.109 180.22 319.109 180.22L320.583 209.04L277.007 209.972C277.007 209.972 271.269 213.681 266.013 216.726C262.78 218.614 259.923 220.209 259.083 220.459C256.908 221.099 252.353 219.692 252.822 218.09Z" fill="#AD6359"/>
<path d="M259.064 220.49C259.893 220.241 262.761 218.663 265.989 216.757C271.245 213.712 276.952 209.997 276.952 209.997L286.654 209.79L300.777 184.667C297.47 185.398 295.004 185.885 294.827 185.641C294.827 185.641 281.879 177.231 281.66 177.34C279.766 178.138 253.23 216.501 252.773 218.109C252.316 219.717 256.909 221.099 259.064 220.49Z" fill="white"/>
<path d="M252.566 218.146C253.047 216.495 279.717 178.144 281.66 177.341C282.391 177.024 288.706 180.562 294.876 185.636L277.658 210.338C277.658 210.338 261.214 219.973 258.979 220.643C256.744 221.313 252.079 219.802 252.566 218.146Z" fill="#176FFF"/>
<path d="M254.479 218.663C259.107 212.347 277.177 186.42 281.276 179.825C281.306 179.77 281.276 179.745 281.233 179.794C276.507 185.957 258.65 212.03 254.375 218.589C254.284 218.73 254.381 218.797 254.479 218.663Z" fill="#263238"/>
<path d="M262.055 219.127C262.571 218.425 262.935 217.623 263.125 216.773C263.315 215.923 263.326 215.042 263.157 214.188C262.868 212.647 261.995 211.277 260.721 210.363C260.678 210.363 260.63 210.406 260.666 210.442C261.788 211.545 262.521 212.982 262.756 214.537C262.991 216.092 262.715 217.681 261.97 219.066C261.964 219.121 262.055 219.176 262.055 219.127Z" fill="#263238"/>
<path d="M275.606 211.89C277.433 209.344 278.602 205.727 277.61 202.669C277.567 202.548 277.403 202.602 277.384 202.706C277.002 205.778 276.289 208.8 275.259 211.72C275.243 211.765 275.245 211.814 275.263 211.858C275.281 211.901 275.314 211.937 275.357 211.958C275.4 211.979 275.448 211.984 275.494 211.971C275.54 211.959 275.58 211.93 275.606 211.89Z" fill="#263238"/>
<path d="M273.456 213.339C275.283 210.794 276.446 207.176 275.454 204.113C275.411 203.997 275.247 204.052 275.234 204.155C274.848 207.225 274.133 210.245 273.103 213.163C273.09 213.208 273.093 213.256 273.112 213.299C273.131 213.342 273.164 213.376 273.206 213.397C273.248 213.418 273.296 213.424 273.342 213.413C273.387 213.403 273.428 213.377 273.456 213.339Z" fill="#263238"/>
<path d="M271.3 214.791C273.127 212.239 274.29 208.627 273.298 205.564C273.255 205.448 273.091 205.503 273.078 205.606C272.692 208.677 271.977 211.696 270.947 214.614C270.934 214.659 270.937 214.707 270.956 214.75C270.975 214.793 271.008 214.828 271.05 214.849C271.092 214.87 271.14 214.875 271.186 214.865C271.231 214.854 271.272 214.828 271.3 214.791Z" fill="#263238"/>
<path d="M269.144 216.228C270.971 213.676 272.134 210.064 271.142 207.001C271.099 206.879 270.935 206.94 270.922 207.044C270.534 210.113 269.822 213.132 268.797 216.051C268.776 216.097 268.773 216.149 268.79 216.197C268.806 216.244 268.841 216.284 268.885 216.307C268.93 216.329 268.982 216.334 269.031 216.319C269.079 216.305 269.119 216.272 269.144 216.228Z" fill="#263238"/>
<path d="M286.24 185.708C288.243 182.815 283.749 179.703 281.745 182.602C279.741 185.501 284.242 188.607 286.24 185.708Z" fill="#263238"/>
<path d="M280.539 219.449C282.524 218.894 282.61 216.519 282.049 214.942C281.031 212.243 279.324 209.857 277.098 208.023C277.087 208.016 277.075 208.01 277.063 208.008C277.05 208.005 277.037 208.005 277.024 208.008C277.011 208.011 276.999 208.017 276.989 208.024C276.979 208.032 276.97 208.042 276.964 208.054C276.909 208.03 276.849 208.021 276.789 208.025C276.729 208.029 276.671 208.047 276.619 208.078C276.568 208.109 276.524 208.152 276.492 208.202C276.46 208.253 276.44 208.311 276.434 208.37C276.434 211.087 276.087 213.986 276.915 216.623C277.396 218.158 278.663 219.972 280.539 219.449ZM277.281 212.487C277.25 211.154 277.281 209.826 277.208 208.492C278.17 209.844 279.187 211.148 280.015 212.597C280.423 213.286 280.783 214.003 281.093 214.741C281.556 215.892 281.952 219.912 278.974 218.224C277.317 217.287 277.281 214.077 277.281 212.487Z" fill="#263238"/>
<path d="M280.588 201.001C278.687 202.998 277.713 205.757 276.525 208.193C276.504 208.249 276.497 208.31 276.503 208.369C276.51 208.429 276.53 208.486 276.563 208.536C276.595 208.587 276.639 208.629 276.691 208.659C276.742 208.689 276.801 208.707 276.86 208.711C276.86 208.766 276.897 208.808 276.964 208.796C279.771 208.136 282.355 206.748 284.455 204.77C285.673 203.601 286.629 201.427 285.064 200.057C283.499 198.686 281.696 199.783 280.588 201.001ZM283.133 200.465C286.55 200.258 284.425 203.692 283.505 204.521C282.899 205.049 282.258 205.535 281.586 205.976C280.187 206.86 278.744 207.673 277.262 208.413C277.92 207.255 278.48 206.043 279.089 204.862C279.82 203.437 281.245 200.55 283.133 200.434V200.465Z" fill="#263238"/>
<path d="M320.047 171.324C320.047 171.324 356.747 159.508 376.48 161.482C395.817 163.412 404.191 187.451 385.616 200.923C365.365 215.619 287.939 212.092 287.939 212.092L303.889 182.213C303.889 182.213 330.078 175.514 354.122 175.301L320.479 181.354L320.047 171.324Z" fill="#37474F"/>
<path d="M302.823 184.143C302.827 184.092 302.827 184.042 302.823 183.991V183.869C302.823 183.772 302.866 183.674 302.884 183.583C302.933 183.387 302.992 183.194 303.061 183.004C303.128 182.809 303.201 182.627 303.28 182.438C303.368 182.255 303.467 182.078 303.579 181.908C303.579 181.908 303.609 181.908 303.621 181.908H303.664H303.707C306.593 181.244 326.241 177.572 329.164 177.115C332.088 176.658 335.072 176.244 338.032 175.866C343.943 175.101 349.888 174.634 355.846 174.466C356.4 174.466 356.96 174.466 357.521 174.466C357.636 174.423 357.758 174.399 357.88 174.362C358.16 174.283 358.446 174.198 358.727 174.131C359.263 174.003 359.799 173.905 360.334 173.796C361.455 173.576 362.576 173.412 363.69 173.15C363.757 173.15 363.788 173.241 363.721 173.26C362.606 173.552 361.51 173.93 360.395 174.222L359.427 174.472C361.613 174.472 363.8 174.569 365.986 174.673C366.053 174.673 366.059 174.782 365.986 174.782C363.014 174.734 360.03 174.837 357.064 175.014C354.098 175.19 351.181 175.379 348.245 175.678C342.307 176.287 336.381 177.06 330.48 177.931C327.167 178.424 307.142 182.225 303.804 182.505H303.761C303.74 182.586 303.714 182.665 303.682 182.742C303.597 182.925 303.512 183.108 303.42 183.291C303.329 183.473 303.244 183.638 303.146 183.808C303.091 183.887 303.043 183.973 302.994 184.058C302.964 184.096 302.938 184.137 302.915 184.18C302.882 184.219 302.854 184.262 302.83 184.308C302.903 184.259 302.787 184.21 302.823 184.143Z" fill="#263238"/>
<path d="M294.066 210.058C295.058 208.31 295.893 206.452 296.788 204.656C297.683 202.859 298.615 201.044 299.498 199.241C301.325 195.648 307.824 183.54 308.482 182.688C308.518 182.633 308.616 182.688 308.591 182.749C308.305 183.681 304.255 191.683 303.317 193.468C301.447 197.043 299.474 200.551 297.531 204.083C296.977 205.088 296.398 206.087 295.838 207.092C295.278 208.097 294.675 209.083 294.157 210.106C294.156 210.115 294.152 210.123 294.147 210.13C294.142 210.137 294.135 210.143 294.127 210.147C294.12 210.151 294.111 210.153 294.102 210.153C294.093 210.153 294.085 210.15 294.077 210.146C294.069 210.142 294.063 210.136 294.058 210.129C294.053 210.122 294.05 210.114 294.049 210.105C294.047 210.096 294.048 210.088 294.051 210.079C294.054 210.071 294.059 210.064 294.066 210.058Z" fill="#263238"/>
<path d="M323.232 127.022C321.892 141.402 317.495 159.021 315.029 162.109C311.904 166.025 289.047 175.508 287.884 175.776C284.997 176.458 276.312 156.171 279.358 155.306C284.017 153.984 301.143 150.744 302.032 149.545C302.921 148.345 309.011 138.137 315.114 126.761C319.335 118.898 324.067 118.1 323.232 127.022Z" fill="#AD6359"/>
<path d="M290.07 174.326C289.742 174.545 285.125 177.7 282.183 178.997C279.985 179.959 273.59 182.578 272.287 180.264C271.391 178.693 274.973 176.707 277.476 175.251C278.791 174.484 280.314 172.815 279.784 171.957C278.858 170.483 275.478 172.535 273.298 174.222C269.083 177.487 263.644 183.078 260.545 181.135C259.375 180.398 260.386 178.638 261.964 176.835C259.302 179.046 256.403 180.958 255.069 180.191C254.308 179.758 254.174 179.034 254.46 178.157C253.602 178.571 252.798 178.619 252.17 178.108C251.092 177.243 251.36 175.727 252.17 174.088C251.991 174.094 251.813 174.056 251.65 173.979C251.488 173.902 251.347 173.787 251.238 173.644C248.833 170.86 257.676 160.763 261.026 159.484C270.892 155.695 281.684 154.715 281.684 154.715C286.136 157.376 290.07 174.314 290.07 174.326Z" fill="#AD6359"/>
<path d="M273.846 166.943C271.473 167.65 269.277 168.852 267.402 170.47C265.045 172.522 263.602 174.733 261.702 177.041C261.653 177.102 261.744 177.181 261.793 177.12C262.7 176.03 266.501 171.864 267.494 170.902C269.292 169.129 271.47 167.79 273.864 166.986C273.864 166.986 273.876 166.937 273.846 166.943Z" fill="#263238"/>
<path d="M271.373 162.876C268.738 163.882 266.211 165.153 263.833 166.67C261.3 168.424 259.473 170.963 257.67 173.418C256.586 174.892 255.536 176.39 254.521 177.913C254.478 177.973 254.57 178.053 254.612 177.992C256.44 175.458 258.338 172.983 260.307 170.568C262.13 168.316 264.379 166.447 266.927 165.068C268.377 164.276 269.893 163.6 271.397 162.93C271.416 162.912 271.397 162.863 271.373 162.876Z" fill="#263238"/>
<path d="M268.005 159.477C265.478 160.361 263.267 161.122 261.147 162.821C258.346 165.074 255.818 168.576 254.935 169.819C253.955 171.189 253.023 172.59 252.115 174.009C252.079 174.064 252.176 174.131 252.213 174.076C254.314 170.956 256.615 167.976 259.101 165.154C260.264 163.793 261.63 162.62 263.151 161.676C264.711 160.813 266.341 160.084 268.023 159.496C268.023 159.496 268.017 159.477 268.005 159.477Z" fill="#263238"/>
<path d="M283.237 153.63L293.591 175.744C293.591 175.744 312.605 167.504 315.65 163.107C318.695 158.71 322.708 137.765 323.366 127.783C324.024 117.801 319.103 118.69 315.449 125.426C311.795 132.162 302.47 148.569 301.886 148.953C301.301 149.337 283.237 153.63 283.237 153.63Z" fill="#176FFF"/>
<path d="M294.133 165.238C292.915 162.632 291.617 160.037 290.479 157.388C289.827 155.877 289.163 154.379 288.524 152.863C288.524 152.808 288.597 152.759 288.627 152.814C289.979 155.378 291.331 157.954 292.568 160.579C293.804 163.204 295.052 165.792 296.222 168.423C296.9 169.914 297.533 171.426 298.122 172.961C298.122 172.991 298.085 173.016 298.067 172.991C296.648 170.47 295.387 167.857 294.133 165.238Z" fill="#263238"/>
<path opacity="0.1" d="M303.134 171.244L303.969 170.818C305.534 170.014 307.13 169.161 308.622 168.302L309.188 167.973C309.486 167.803 309.797 167.626 310.071 167.45C310.223 167.364 310.363 167.273 310.504 167.188L310.662 167.09L311.107 166.81C311.716 166.439 312.252 166.073 312.763 165.708L313.122 165.452C313.926 164.889 314.669 164.244 315.339 163.527L315.516 163.314C315.577 163.241 315.626 163.168 315.674 163.107C318.762 158.734 322.733 137.765 323.391 127.783V127.436V127.363C323.427 126.608 323.391 125.676 323.391 124.671C323.019 119.799 320.62 119.312 318.074 121.815C313.019 137.899 305.552 164.374 303.134 171.244Z" fill="black"/>
<path d="M309.145 172.906L356.717 172.163C356.589 171.2 347.466 143.538 341.375 133.574C333.568 120.785 330.096 120.066 328.019 119.536C325.364 118.86 320.833 119.761 319.797 120.377C318.616 121.071 315.357 128.294 314.432 133.452C312.605 143.806 308.877 172.376 309.145 172.906Z" fill="#455399"/>
<path d="M309.145 172.906L356.717 172.163C356.589 171.2 347.466 143.538 341.375 133.574C333.568 120.785 330.096 120.066 328.019 119.536C325.364 118.86 320.833 119.761 319.797 120.377C318.616 121.071 315.357 128.294 314.432 133.452C312.605 143.806 308.877 172.376 309.145 172.906Z" fill="#176FFF"/>
<path opacity="0.1" d="M356.096 170.092L309.279 170.865C309.31 170.61 309.334 170.336 309.371 170.037L355.846 169.27C355.925 169.562 356.017 169.836 356.096 170.092ZM354.098 164.117L309.974 164.848C309.937 165.128 309.907 165.409 309.876 165.677L354.384 164.94C354.287 164.672 354.196 164.398 354.098 164.117ZM352.271 158.971L310.613 159.659C310.613 159.939 310.546 160.214 310.51 160.488L352.533 159.793L352.271 158.971ZM350.365 153.825L311.295 154.47L311.204 155.323L350.694 154.671L350.365 153.825ZM348.367 148.678L312.008 149.287C311.965 149.562 311.929 149.842 311.892 150.116L348.696 149.507L348.367 148.678ZM346.248 143.532L312.751 144.086C312.708 144.36 312.672 144.641 312.635 144.921L346.607 144.36C346.503 144.08 346.382 143.806 346.266 143.532H346.248ZM343.921 138.398L313.518 138.897C313.476 139.171 313.433 139.445 313.39 139.732L344.317 139.22C344.207 138.94 344.073 138.666 343.939 138.398H343.921ZM341.357 133.574L341.162 133.264L314.365 133.708C314.316 133.97 314.267 134.25 314.219 134.537L341.625 134.086C341.576 133.909 341.479 133.739 341.375 133.574H341.357ZM337.8 128.142L315.753 128.507C315.656 128.781 315.565 129.055 315.479 129.336L338.373 128.958C338.184 128.678 338.007 128.404 337.819 128.142H337.8ZM333.665 123.044L317.909 123.306C317.775 123.574 317.647 123.848 317.507 124.14L334.426 123.86C334.164 123.556 333.921 123.282 333.665 123.044Z" fill="black"/>
<path d="M334.56 122.51C344.147 128.065 370.652 152.134 366.699 159.186C362.746 166.239 329.585 168.419 319.627 166.897C316.667 166.446 321.606 147.328 324.536 146.031C326.972 144.947 341.71 146.945 341.863 146.086C342.027 145.118 338.087 139.527 331.564 129.228C324.036 117.364 330.328 120.056 334.56 122.51Z" fill="#AD6359"/>
<path d="M310.101 144.738C303.542 145.773 302.02 147.04 296.027 144.976C292.092 143.617 289.534 145.548 292.5 148.703C297.373 153.855 306.088 154.3 309.163 153.575L310.101 144.738Z" fill="#AD6359"/>
<path d="M328.641 145.725C328.641 145.725 320.382 143.947 313.293 144.355C308.384 144.641 297.781 146.444 291.063 159.483C289.474 162.577 289.394 168.113 293.834 164.002C296.983 161.085 298.098 158.283 300.241 156.925C300.241 156.925 300.978 163.978 304.139 165.452C306.9 166.741 309.749 167.832 312.666 168.716C312.948 168.219 313.198 167.704 313.415 167.175C313.415 167.175 316.502 168.271 321.101 166.383L328.641 145.725Z" fill="#AD6359"/>
<path d="M308.652 145.371C306.825 147.198 302.976 151.059 300.942 155.329C298.688 160.073 295.619 169.818 299.114 171.444C301.691 172.662 303.189 169.008 303.189 169.008C303.189 169.008 302.769 173.301 305.339 173.88C307.677 174.404 308.67 171.535 308.67 171.535C308.67 171.535 308.859 174.184 311.21 174.251C314.036 174.33 313.165 168.77 316.082 166.37C316.782 165.841 308.652 145.371 308.652 145.371Z" fill="#AD6359"/>
<path d="M306.35 156.877C304.9 158.856 302.757 164.186 303.152 168.936C303.152 169.046 303.244 169.094 303.256 168.997C303.81 164.853 304.865 160.791 306.399 156.901C306.399 156.901 306.368 156.859 306.35 156.877Z" fill="#263238"/>
<path d="M311.076 159.294C309.998 161.121 308.031 166.736 308.597 171.523C308.597 171.627 308.701 171.675 308.707 171.572C309.054 167.406 309.871 163.294 311.143 159.312C311.143 159.312 311.088 159.269 311.076 159.294Z" fill="#263238"/>
<path d="M300.229 156.881C298.359 158.1 297.33 159.519 295.966 161.242C295.302 162.105 294.59 162.931 293.834 163.715C293.134 164.421 292.111 165.475 291.008 165.036C290.735 164.88 290.508 164.653 290.353 164.378C290.197 164.104 290.119 163.793 290.125 163.477C290.12 162.57 290.26 161.667 290.539 160.804C290.539 160.773 290.497 160.749 290.485 160.804C290.198 161.593 289.994 162.409 289.876 163.24C289.806 163.81 289.913 164.388 290.18 164.896C290.789 165.938 292.196 165.682 293.049 165.085C293.547 164.706 294.008 164.28 294.425 163.812C294.833 163.374 295.223 162.923 295.601 162.454C296.374 161.504 297.099 160.505 297.86 159.543C298.616 158.627 299.429 157.76 300.296 156.948C300.305 156.94 300.31 156.928 300.31 156.915C300.31 156.902 300.305 156.89 300.296 156.881C300.287 156.873 300.275 156.868 300.263 156.868C300.25 156.868 300.238 156.873 300.229 156.881Z" fill="#263238"/>
<path d="M298.122 165.398C298.656 162.528 299.378 159.696 300.284 156.92C300.284 156.884 300.247 156.859 300.229 156.89C299.09 158.887 297.744 163.693 297.537 165.16C297.33 166.628 297.147 168.449 297.574 169.868C298.225 172.012 299.766 171.988 300.327 171.933C300.983 171.853 301.593 171.553 302.056 171.08C302.587 170.484 302.989 169.786 303.238 169.028C303.238 168.991 303.201 168.961 303.183 168.997C302.696 170.069 301.715 171.275 300.509 171.476C300.244 171.529 299.971 171.528 299.707 171.474C299.442 171.419 299.191 171.312 298.968 171.159C298.494 170.741 298.185 170.166 298.097 169.539C297.874 168.167 297.882 166.767 298.122 165.398Z" fill="#263238"/>
<path d="M328.64 145.725L325.053 169.587C325.053 169.587 366.467 166.542 367.765 158.77C369.062 150.999 345.992 129.135 336.875 123.526C326.308 116.997 326.223 120.328 330.352 127.71C334.676 135.432 341.808 146.334 341.808 146.334L328.64 145.725Z" fill="#176FFF"/>
<path d="M355.28 148.307C353.1 147.613 350.874 147.077 348.617 146.705C346.386 146.335 344.13 146.131 341.869 146.096C340.578 146.065 339.293 146.096 338.001 146.096C337.993 146.096 337.986 146.099 337.98 146.105C337.974 146.111 337.971 146.118 337.971 146.126C337.971 146.134 337.974 146.142 337.98 146.148C337.986 146.154 337.993 146.157 338.001 146.157C340.273 146.203 342.54 146.378 344.792 146.681C347.025 146.961 349.258 147.282 351.491 147.643C352.746 147.85 354.001 148.112 355.249 148.362C355.26 148.357 355.269 148.35 355.274 148.34C355.28 148.33 355.282 148.318 355.28 148.307Z" fill="#263238"/>
<path d="M328.726 145.634C328.939 145.634 340.602 145.914 340.998 145.969C340.906 145.823 337.295 140.762 336.735 140.025L336.576 139.8C336.272 139.489 335.967 139.191 335.675 138.862L334.554 137.644C334.944 138.039 335.34 138.435 335.724 138.862C335.906 139.044 336.077 139.239 336.253 139.428C335.888 138.9 335.529 138.37 335.175 137.839C334.603 136.986 334.061 136.121 333.525 135.256L333.568 135.226C334.627 136.7 335.736 138.143 336.802 139.611C337.867 141.079 341.887 146.469 341.869 146.475C341.85 146.481 328.939 145.866 328.683 145.866C328.652 145.86 328.625 145.842 328.608 145.817C328.59 145.791 328.583 145.759 328.589 145.729C328.594 145.698 328.612 145.671 328.638 145.653C328.663 145.635 328.695 145.628 328.726 145.634Z" fill="#263238"/>
<path d="M332.136 159.452C332.52 156.796 332.885 154.135 333.354 151.492C333.628 149.987 333.896 148.483 334.183 146.985C334.183 146.924 334.292 146.936 334.286 146.985C334.006 149.664 333.72 152.356 333.312 155.03C332.904 157.704 332.532 160.347 332.094 162.996C331.85 164.507 331.558 165.999 331.217 167.491H331.162C331.369 164.799 331.747 162.131 332.136 159.452Z" fill="#263238"/>
<path d="M324.651 170.068C324.846 169.307 325.053 168.241 325.26 167.48C325.321 167.285 325.461 167.279 325.425 167.48C325.309 168.15 325.26 168.881 325.151 169.569C325.723 169.508 326.302 169.441 326.88 169.392L328.884 169.216C330.192 169.094 331.499 168.96 332.806 168.814C335.454 168.521 338.093 168.168 340.724 167.754C346.019 166.963 351.27 165.898 356.455 164.563C357.898 164.179 359.336 163.771 360.761 163.345C362.186 162.918 363.763 162.376 364.915 161.865C364.951 161.865 364.982 161.907 364.915 161.925C363.783 162.548 362.604 163.079 361.388 163.515C360.113 163.974 358.826 164.392 357.527 164.77C354.945 165.525 352.32 166.14 349.683 166.682C344.449 167.754 339.171 168.609 333.848 169.246C332.362 169.425 330.876 169.585 329.39 169.727C328.634 169.8 327.885 169.873 327.13 169.928C326.375 169.983 324.621 170.196 324.651 170.068Z" fill="#263238"/>
<path d="M320.948 129.994C323.726 129.994 327.264 124.859 328.257 121.169C328.324 120.919 327.41 118.647 326.43 115.84C325.821 114.128 325.212 112.216 324.791 110.425C324.7 110.06 314.237 115.907 314.237 115.907C315.422 117.986 316.346 120.203 316.99 122.509C317.05 122.754 317.085 123.005 317.093 123.258C317.093 123.294 317.093 123.337 317.093 123.386C317.215 124.811 318.263 130.006 320.948 129.994Z" fill="#AD6359"/>
<path d="M324.103 110.638C324.322 113.793 324.219 121.552 318.269 123.142C317.887 123.245 317.498 123.318 317.105 123.361C317.1 123.318 317.1 123.276 317.105 123.233C317.093 122.981 317.06 122.731 317.008 122.484C316.362 120.177 315.435 117.958 314.249 115.876C314.249 115.876 321.783 111.68 324.103 110.638Z" fill="#263238"/>
<path d="M320.084 95.5966C323.013 98.7148 326.302 110.274 324.852 113.928C322.757 119.221 316.722 122.601 311.569 119.489C306.575 116.444 302.556 101.328 304.413 97.7404C307.123 92.4601 315.759 90.9923 320.084 95.5966Z" fill="#AD6359"/>
<path d="M312.897 107.209C312.897 107.179 312.964 107.209 312.97 107.264C313.141 108.056 313.469 108.933 314.249 109.018V109.061C313.354 109.14 312.927 107.971 312.897 107.209Z" fill="#263238"/>
<path d="M313.39 106.199C314.608 105.785 315.364 108.294 314.213 108.678C313.061 109.062 312.355 106.54 313.39 106.199Z" fill="#263238"/>
<path d="M308.549 108.482C308.549 108.482 308.5 108.537 308.512 108.567C308.762 109.335 308.92 110.261 308.293 110.723C308.293 110.723 308.293 110.778 308.293 110.766C309.133 110.395 308.914 109.17 308.549 108.482Z" fill="#263238"/>
<path d="M307.623 107.875C306.344 108.143 306.977 110.676 308.159 110.427C309.34 110.177 308.689 107.649 307.623 107.875Z" fill="#263238"/>
<path d="M313.969 103.877C313.61 103.951 313.269 103.963 312.903 104.005C312.535 104.101 312.147 104.075 311.795 103.932C311.693 103.865 311.616 103.766 311.576 103.65C311.537 103.534 311.536 103.409 311.575 103.293C311.689 103.077 311.857 102.894 312.063 102.764C312.27 102.633 312.507 102.559 312.751 102.55C313.243 102.459 313.751 102.554 314.176 102.818C314.263 102.887 314.329 102.979 314.368 103.084C314.406 103.188 314.415 103.301 314.394 103.41C314.372 103.52 314.321 103.621 314.246 103.703C314.172 103.786 314.076 103.846 313.969 103.877Z" fill="#263238"/>
<path d="M305.936 106.376C306.252 106.21 306.559 106.027 306.855 105.828C307.209 105.609 307.513 105.475 307.69 105.085C307.724 104.973 307.72 104.854 307.681 104.744C307.641 104.634 307.568 104.54 307.47 104.476C307.25 104.372 307.006 104.329 306.764 104.353C306.521 104.376 306.29 104.465 306.094 104.61C305.647 104.834 305.301 105.219 305.126 105.688C305.105 105.794 305.113 105.904 305.148 106.006C305.184 106.109 305.246 106.199 305.329 106.269C305.411 106.34 305.511 106.386 305.618 106.405C305.724 106.424 305.834 106.414 305.936 106.376Z" fill="#263238"/>
<path d="M312.702 113.55C313.153 113.884 313.685 114.094 314.243 114.159C314.546 114.187 314.851 114.119 315.114 113.964C315.686 113.623 315.54 113.044 315.284 112.594C315.145 112.353 314.977 112.13 314.785 111.93C314.281 112.678 313.551 113.246 312.702 113.55Z" fill="#263238"/>
<path d="M314.243 114.158C314.546 114.186 314.851 114.118 315.114 113.963C315.686 113.622 315.54 113.044 315.284 112.593C314.96 112.699 314.681 112.911 314.492 113.195C314.303 113.479 314.215 113.818 314.243 114.158Z" fill="#FF98B9"/>
<path d="M319.803 103.282C317.976 101.503 317.44 97.3071 315.887 96.8808C312.538 95.9551 309.797 102.313 306.551 103.958C303.408 105.553 301.344 104.055 300.631 101.211C299.918 98.3668 301.24 95.5653 304.511 93.2936C307.897 90.9184 311.971 90.7235 314.365 90.9793C314.365 90.9793 312.927 90.1023 313.031 89.5541C313.134 89.006 315.284 89.4689 316.021 89.7551C316.595 90.0378 317.113 90.4216 317.55 90.8879C317.961 90.5345 318.421 90.2413 318.914 90.017C319.643 89.7193 320.453 89.6848 321.204 89.9195C321.35 90.084 320.278 90.8026 319.493 91.2411C319.493 91.2411 321.99 92.4592 322.806 94.2071C323.622 95.9551 325.023 105.346 324.432 105.779C323.665 106.248 320.522 104.006 319.803 103.282Z" fill="#263238"/>
<path d="M319.079 91.1674C319.042 91.1674 319.024 91.2222 319.079 91.2344C320.174 91.4726 321.18 92.0127 321.984 92.7935C322.881 93.7761 323.5 94.9811 323.774 96.2833C324.383 98.7742 324.316 101.35 324.383 103.89C324.383 103.908 324.39 103.925 324.403 103.937C324.416 103.95 324.433 103.957 324.45 103.957C324.468 103.957 324.485 103.95 324.498 103.937C324.51 103.925 324.517 103.908 324.517 103.89C324.603 101.192 324.615 98.3053 323.853 95.6925C323.202 93.4696 321.557 91.3745 319.079 91.1674Z" fill="#263238"/>
<path d="M315.601 95.9926C314.588 96.3564 313.651 96.9035 312.836 97.6066C312.129 98.3399 311.515 99.1582 311.009 100.043C309.706 101.906 308.116 103.642 305.984 104.55C305.984 104.55 305.984 104.604 305.984 104.592C307.956 103.815 309.652 102.468 310.857 100.725C311.425 99.8158 312.049 98.9432 312.726 98.1121C313.608 97.3035 314.616 96.6451 315.711 96.1632C315.733 96.1486 315.749 96.1257 315.755 96.0994C315.761 96.0732 315.756 96.0457 315.741 96.0231C315.727 96.0005 315.704 95.9846 315.677 95.9788C315.651 95.9731 315.624 95.9781 315.601 95.9926Z" fill="#263238"/>
<path d="M311.996 91.0344C310.402 91.0356 308.816 91.2653 307.288 91.7165C305.805 92.1036 304.402 92.7466 303.14 93.6167C300.99 95.1637 299.59 97.7216 300.241 100.395C300.559 101.775 301.377 102.988 302.537 103.8C302.553 103.811 302.573 103.816 302.593 103.812C302.612 103.809 302.63 103.798 302.641 103.781C302.652 103.765 302.657 103.745 302.653 103.726C302.65 103.707 302.639 103.689 302.623 103.678C301.616 102.902 300.888 101.822 300.545 100.598C300.203 99.3743 300.265 98.0728 300.722 96.8872C301.806 94.2684 304.431 92.7945 307.014 91.9845C308.637 91.4987 310.307 91.1863 311.996 91.0527V91.0344Z" fill="#263238"/>
<path d="M322.075 105.383C322.075 105.383 322.879 100.785 324.852 100.913C326.826 101.041 327.355 106.912 325.833 108.465C325.651 108.677 325.428 108.85 325.178 108.973C324.927 109.097 324.655 109.168 324.376 109.184C324.097 109.199 323.818 109.158 323.556 109.062C323.293 108.967 323.053 108.82 322.849 108.629L322.075 105.383Z" fill="#AD6359"/>
<path d="M324.962 102.576L324.992 102.619C323.945 103.751 323.829 105.268 323.933 106.736C323.947 106.571 323.997 106.411 324.079 106.267C324.162 106.123 324.274 105.999 324.409 105.903C324.544 105.807 324.698 105.741 324.861 105.71C325.023 105.679 325.191 105.684 325.352 105.725C325.363 105.725 325.374 105.729 325.382 105.737C325.39 105.745 325.394 105.756 325.394 105.767C325.394 105.779 325.39 105.789 325.382 105.797C325.374 105.805 325.363 105.81 325.352 105.81C325.091 105.846 324.849 105.961 324.656 106.14C324.463 106.319 324.33 106.552 324.274 106.809C324.183 107.239 324.14 107.678 324.146 108.118C324.146 108.264 323.902 108.301 323.884 108.149V108.112C323.068 106.48 323.269 103.557 324.962 102.576Z" fill="#263238"/>
<path d="M316.259 125.895C316.383 126.802 316.626 127.689 316.984 128.532C317.309 129.373 317.786 130.147 318.39 130.816C318.971 131.476 319.768 131.908 320.638 132.034C321.505 132.067 322.359 131.82 323.074 131.327C324.589 130.339 325.893 129.06 326.911 127.564C327.982 126.082 328.843 124.458 329.469 122.74C329.239 123.633 328.934 124.505 328.555 125.347C328.169 126.193 327.717 127.007 327.203 127.783C326.699 128.564 326.118 129.293 325.467 129.957C324.83 130.646 324.105 131.248 323.311 131.748C322.5 132.282 321.534 132.535 320.565 132.466C319.608 132.323 318.739 131.828 318.129 131.078C316.962 129.597 316.306 127.779 316.259 125.895Z" fill="#263238"/>
<path d="M316.426 178.773L267.475 179.705L267.517 181.897L316.468 180.965L316.426 178.773Z" fill="#C7C7C7"/>
<path d="M267.487 179.691L267.53 181.883L300.802 181.25L299.084 179.088L267.487 179.691Z" fill="#A6A6A6"/>
<path d="M297.013 181.324L249.308 182.231L244.722 149.91L292.427 148.996L297.013 181.324Z" fill="#C7C7C7"/>
<path d="M273.773 165.562C273.787 165.941 273.726 166.319 273.592 166.674C273.459 167.029 273.255 167.354 272.994 167.629C272.733 167.904 272.42 168.125 272.072 168.277C271.725 168.429 271.35 168.51 270.971 168.516C270.199 168.528 269.452 168.238 268.89 167.708C268.329 167.178 267.996 166.449 267.962 165.678C267.947 165.299 268.007 164.92 268.14 164.565C268.273 164.21 268.476 163.884 268.736 163.609C268.997 163.333 269.31 163.112 269.657 162.959C270.004 162.806 270.379 162.724 270.758 162.718C271.532 162.704 272.281 162.994 272.844 163.526C273.408 164.057 273.741 164.788 273.773 165.562Z" fill="white"/>
</svg>
